<?xml version="1.0" encoding="UTF-8"?>
<svg xmlns:xodm="http://www.corel.com/coreldraw/odm/2003" xmlns="http://www.w3.org/2000/svg" xmlns:xlink="http://www.w3.org/1999/xlink" version="1.1" id="Layer_1" x="0px" y="0px" viewBox="0 0 2500 2500" style="enable-background:new 0 0 2500 2500;" xml:space="preserve">
<style type="text/css">
	.st0{fill:none;}
	.st1{fill-rule:evenodd;clip-rule:evenodd;fill:#23AF91;}
</style>
<g id="Layer_x0020_1">
	<rect y="0" class="st0" width="2500" height="2500"></rect>
	<path id="形状" class="st1" d="M830.3,1250.3l740.5,740.6l467.4-467.4c83.6-75.2,211.4-71.9,290.9,7.6s82.9,207.4,7.6,290.9   l-616.8,616.9c-82.9,81.5-215.7,81.5-298.6,0l-889.8-890.1v529c0,116.8-94.6,211.4-211.4,211.4c-116.8,0-211.4-94.6-211.4-211.4   V422c0-116.7,94.6-211.4,211.4-211.4c116.8,0,211.4,94.7,211.4,211.4v529l889.7-889.9c82.8-81.5,215.8-81.5,298.6,0L2337,677.9   c75.2,83.6,71.9,211.4-7.6,290.9s-207.4,82.9-290.9,7.6l-467.4-467.4L830.3,1250.3L830.3,1250.3z M1571.1,1038.6L1571.1,1038.6   c-85.6,0-162.8,51.5-195.6,130.6c-32.8,79.1-14.7,170.1,45.8,230.7c60.5,60.6,151.6,78.7,230.7,46   c79.1-32.8,130.7-109.9,130.7-195.6c0-56.1-22.2-109.9-61.9-149.7c-39.6-39.7-93.5-62-149.6-62L1571.1,1038.6L1571.1,1038.6z"></path>
</g>
</svg>
