<svg role="img" viewBox="0 0 128 128" xmlns="http://www.w3.org/2000/svg" id="Kucoin--Streamline-Simple-Icons" height="128" width="128">
  <desc>
    Kucoin Streamline Icon: https://streamlinehq.com
  </desc>
  <title>KuCoin</title>
  <path d="m42.282666666666664 63.97866666666667 37.983999999999995 37.983999999999995 23.946666666666665 -23.946666666666665a10.687999999999999 10.687999999999999 0 0 1 15.280000000000001 0 10.687999999999999 10.687999999999999 0 0 1 0 15.280000000000001l-31.562666666666665 31.562666666666665a10.975999999999999 10.975999999999999 0 0 1 -15.376 0l-45.552 -45.55733333333333v27.04a10.847999999999999 10.847999999999999 0 1 1 -21.706666666666667 0V21.562666666666665a10.847999999999999 10.847999999999999 0 1 1 21.706666666666667 0v27.136L72.55466666666666 3.141333333333333a10.975999999999999 10.975999999999999 0 0 1 15.376 0l31.562666666666665 31.562666666666665c4.1866666666666665 4.282666666666667 4.1866666666666665 11.136 0 15.280000000000001 -4.288 4.1866666666666665 -11.141333333333332 4.1866666666666665 -15.280000000000001 0l-23.946666666666665 -23.946666666666665zM80.26666666666667 53.120000000000005a10.869333333333332 10.869333333333332 0 0 0 -10.949333333333332 10.853333333333333c0 6.042666666666666 4.810666666666666 10.943999999999999 10.853333333333333 10.943999999999999a10.869333333333332 10.869333333333332 0 0 0 10.949333333333332 -10.853333333333333v-0.09599999999999999A11.04 11.04 0 0 0 80.26666666666667 53.120000000000005z" fill="#000000" stroke-width="5.3333"></path>
</svg>